# xmcd CD database file
#
# Track frame offsets:
#	150
#	41036
#	75794
#	108595
#
# Disc length: 2013 seconds
#
# Revision: 0
# Processed by: cddbd v1.5PL3 Copyright (c) Steve Scherf et al.
# Submitted via: CDex 1.50
#
DISCID=2407db04
DTITLE=Pat Metheny Trio - Italy, 07/17/99 [CD2]
DYEAR=2004
DGENRE=Jazz
TTITLE0=Faith Healer (Pat Metheny)
TTITLE1=A Map Of The World (Pat Metheny) - The Moon Is A Harsh Mistress
TTITLE2=Waltz For Ruth (Charlie Haden)
TTITLE3=Lone Jack (Pat Metheny - Lyle Mays)
EXTD=YEAR: 2004
EXTT0=
EXTT1=
EXTT2=
EXTT3=
PLAYORDER=
